<svg width="22" height="22" viewBox="0 0 22 22" fill="none" xmlns="http://www.w3.org/2000/svg">
<path d="M9.8614 1.01291H7.83855C2.78142 1.01291 0.75857 3.03576 0.75857 8.09289V14.1614C0.75857 19.2186 2.78142 21.2414 7.83855 21.2414H13.9071C18.9642 21.2414 20.9871 19.2186 20.9871 14.1614V12.1386" stroke="white" stroke-width="1.51714" stroke-linecap="round" stroke-linejoin="round"/>
<path d="M14.9589 2.04432L6.98883 10.0144C6.6854 10.3178 6.38198 10.9145 6.32129 11.3494L5.88638 14.3938C5.72455 15.4963 6.50335 16.265 7.6058 16.1133L10.6502 15.6783C11.075 15.6177 11.6717 15.3142 11.9853 15.0108L19.9553 7.04077C21.3309 5.66523 21.9782 4.06718 19.9553 2.04432C17.9325 0.0214718 16.3344 0.668785 14.9589 2.04432Z" stroke="white" stroke-width="1.5" stroke-miterlimit="10" stroke-linecap="round" stroke-linejoin="round"/>
<path d="M13.816 3.18738C14.4936 5.60468 16.385 7.49605 18.8124 8.18382" stroke="white" stroke-width="1.51714" stroke-miterlimit="10" stroke-linecap="round" stroke-linejoin="round"/>
</svg>
