<svg width="12" height="7" viewBox="0 0 12 7" fill="none" xmlns="http://www.w3.org/2000/svg">
<path d="M11.5575 0.310882C11.4591 0.212334 11.3423 0.134149 11.2137 0.080804C11.0851 0.0274587 10.9472 -4.0324e-08 10.808 -4.64098e-08C10.6688 -5.24955e-08 10.5309 0.0274587 10.4023 0.080804C10.2737 0.134149 10.1569 0.212334 10.0586 0.310882L5.93394 4.43551L1.80932 0.310882C1.61055 0.112116 1.34097 0.000449668 1.05987 0.000449655C0.778772 0.000449643 0.509185 0.112116 0.310419 0.310882C0.111653 0.509648 -1.11859e-05 0.779233 -1.11982e-05 1.06033C-1.12105e-05 1.34143 0.111653 1.61101 0.310419 1.80978L5.18981 6.68917C5.28816 6.78772 5.40497 6.8659 5.53357 6.91925C5.66217 6.97259 5.80003 7.00005 5.93926 7.00005C6.07848 7.00005 6.21634 6.97259 6.34494 6.91925C6.47354 6.8659 6.59036 6.78772 6.68871 6.68917L11.5681 1.80978C11.9721 1.40582 11.9721 0.725471 11.5575 0.310882Z" fill="#FE481C"/>
</svg>
