<svg width="77" height="12" viewBox="0 0 77 12" fill="none" xmlns="http://www.w3.org/2000/svg">
<path d="M12.5798 4.22554L8.68268 3.67806L6.94055 0.264102C6.89297 0.170629 6.81469 0.0949614 6.71799 0.0489671C6.47547 -0.0667604 6.18077 0.0296792 6.05951 0.264102L4.31738 3.67806L0.420236 4.22554C0.312792 4.24038 0.214557 4.28934 0.139346 4.36352C0.0484205 4.45386 -0.00168366 4.5754 4.32016e-05 4.70142C0.00177006 4.82745 0.0551867 4.94766 0.148556 5.03563L2.96819 7.69291L2.30204 11.4452C2.28642 11.5324 2.29641 11.6222 2.33088 11.7043C2.36536 11.7864 2.42293 11.8575 2.49708 11.9095C2.57123 11.9616 2.65898 11.9925 2.75039 11.9988C2.8418 12.0051 2.9332 11.9865 3.01424 11.9452L6.50003 10.1736L9.98582 11.9452C10.081 11.9941 10.1915 12.0104 10.2974 11.9926C10.5645 11.9481 10.7441 11.7033 10.698 11.4452L10.0319 7.69291L12.8515 5.03563C12.9283 4.96293 12.9789 4.86798 12.9943 4.76412C13.0357 4.50447 12.8484 4.26412 12.5798 4.22554Z" fill="#FCDA69"/>
<path d="M28.5798 4.22554L24.6827 3.67806L22.9406 0.264102C22.893 0.170629 22.8147 0.0949614 22.718 0.0489671C22.4755 -0.0667604 22.1808 0.0296792 22.0595 0.264102L20.3174 3.67806L16.4202 4.22554C16.3128 4.24038 16.2146 4.28934 16.1393 4.36352C16.0484 4.45386 15.9983 4.5754 16 4.70142C16.0018 4.82745 16.0552 4.94766 16.1486 5.03563L18.9682 7.69291L18.302 11.4452C18.2864 11.5324 18.2964 11.6222 18.3309 11.7043C18.3654 11.7864 18.4229 11.8575 18.4971 11.9095C18.5712 11.9616 18.659 11.9925 18.7504 11.9988C18.8418 12.0051 18.9332 11.9865 19.0142 11.9452L22.5 10.1736L25.9858 11.9452C26.081 11.9941 26.1915 12.0104 26.2974 11.9926C26.5645 11.9481 26.7441 11.7033 26.698 11.4452L26.0319 7.69291L28.8515 5.03563C28.9283 4.96293 28.9789 4.86798 28.9943 4.76412C29.0357 4.50447 28.8484 4.26412 28.5798 4.22554Z" fill="#FCDA69"/>
<path d="M44.5798 4.22554L40.6827 3.67806L38.9406 0.264102C38.893 0.170629 38.8147 0.0949614 38.718 0.0489671C38.4755 -0.0667604 38.1808 0.0296792 38.0595 0.264102L36.3174 3.67806L32.4202 4.22554C32.3128 4.24038 32.2146 4.28934 32.1393 4.36352C32.0484 4.45386 31.9983 4.5754 32 4.70142C32.0018 4.82745 32.0552 4.94766 32.1486 5.03563L34.9682 7.69291L34.302 11.4452C34.2864 11.5324 34.2964 11.6222 34.3309 11.7043C34.3654 11.7864 34.4229 11.8575 34.4971 11.9095C34.5712 11.9616 34.659 11.9925 34.7504 11.9988C34.8418 12.0051 34.9332 11.9865 35.0142 11.9452L38.5 10.1736L41.9858 11.9452C42.081 11.9941 42.1915 12.0104 42.2974 11.9926C42.5645 11.9481 42.7441 11.7033 42.698 11.4452L42.0319 7.69291L44.8515 5.03563C44.9283 4.96293 44.9789 4.86798 44.9943 4.76412C45.0357 4.50447 44.8484 4.26412 44.5798 4.22554Z" fill="#FCDA69"/>
<path d="M60.5798 4.22554L56.6827 3.67806L54.9406 0.264102C54.893 0.170629 54.8147 0.0949614 54.718 0.0489671C54.4755 -0.0667604 54.1808 0.0296792 54.0595 0.264102L52.3174 3.67806L48.4202 4.22554C48.3128 4.24038 48.2146 4.28934 48.1393 4.36352C48.0484 4.45386 47.9983 4.5754 48 4.70142C48.0018 4.82745 48.0552 4.94766 48.1486 5.03563L50.9682 7.69291L50.302 11.4452C50.2864 11.5324 50.2964 11.6222 50.3309 11.7043C50.3654 11.7864 50.4229 11.8575 50.4971 11.9095C50.5712 11.9616 50.659 11.9925 50.7504 11.9988C50.8418 12.0051 50.9332 11.9865 51.0142 11.9452L54.5 10.1736L57.9858 11.9452C58.081 11.9941 58.1915 12.0104 58.2974 11.9926C58.5645 11.9481 58.7441 11.7033 58.698 11.4452L58.0319 7.69291L60.8515 5.03563C60.9283 4.96293 60.9789 4.86798 60.9943 4.76412C61.0357 4.50447 60.8484 4.26412 60.5798 4.22554Z" fill="#FCDA69"/>
<path d="M76.5798 4.22554L72.6827 3.67806L70.9406 0.264102C70.893 0.170629 70.8147 0.0949614 70.718 0.0489671C70.4755 -0.0667604 70.1808 0.0296792 70.0595 0.264102L68.3174 3.67806L64.4202 4.22554C64.3128 4.24038 64.2146 4.28934 64.1393 4.36352C64.0484 4.45386 63.9983 4.5754 64 4.70142C64.0018 4.82745 64.0552 4.94766 64.1486 5.03563L66.9682 7.69291L66.302 11.4452C66.2864 11.5324 66.2964 11.6222 66.3309 11.7043C66.3654 11.7864 66.4229 11.8575 66.4971 11.9095C66.5712 11.9616 66.659 11.9925 66.7504 11.9988C66.8418 12.0051 66.9332 11.9865 67.0142 11.9452L70.5 10.1736L73.9858 11.9452C74.081 11.9941 74.1915 12.0104 74.2974 11.9926C74.5645 11.9481 74.7441 11.7033 74.698 11.4452L74.0319 7.69291L76.8515 5.03563C76.9283 4.96293 76.9789 4.86798 76.9943 4.76412C77.0357 4.50447 76.8484 4.26412 76.5798 4.22554Z" fill="#FCDA69"/>
</svg>
