<svg width="20" height="15" viewBox="0 0 20 15" fill="none" xmlns="http://www.w3.org/2000/svg">
<path d="M9.23817 15H0.000624961L9.23817 3.96247V15ZM19.9994 15H10.7618C10.7818 13.8005 11.2772 12.6568 12.1413 11.8156C13.0053 10.9743 14.1689 10.5028 15.3809 10.5028C16.593 10.5028 17.7565 10.9743 18.6206 11.8156C19.4846 12.6568 19.9801 13.8005 20 15H19.9994ZM10.7618 11.0375V0H19.9994L10.7618 11.0375ZM9.23817 0C9.21824 1.19948 8.72282 2.34316 7.85874 3.18443C6.99466 4.0257 5.83115 4.49716 4.61909 4.49716C3.40702 4.49716 2.24351 4.0257 1.37943 3.18443C0.515356 2.34316 0.0199363 1.19948 0 0H9.23817Z" fill="#262626"/>
</svg>
